<?xml version="1.0" ?><!DOCTYPE svg  PUBLIC '-//W3C//DTD SVG 1.1//EN'  'http://www.w3.org/Graphics/SVG/1.1/DTD/svg11.dtd'><svg height="512px" style="enable-background:new 0 0 512 512;" version="1.1" viewBox="0 0 512 512" width="512px" xml:space="preserve" xmlns="http://www.w3.org/2000/svg" xmlns:xlink="http://www.w3.org/1999/xlink"><g id="_x32_9_x2C__Microsoft_x2C__Visio"><g><rect height="270" style="fill:#FFFFFF;" width="180" x="286" y="118.5"/><path d="M46,93.5v320l240,30c0-56.36,0-334.366,0-380L46,93.5z" style="fill:#9BC9FF;"/><polygon points="366,328.5 366,363.5 286,363.5 286,283.5 366,283.5   " style="fill:#9BC9FF;"/><path d="M136.3,183.74c17.64,61.89,24.24,81.85,29.39,108.88h0.62c7.35-35,15.75-58.61,30.43-108.88h33.53    l-46.99,139.52h-36.84l-44.71-139.52H136.3z" style="fill:#FFFFFF;"/><path d="M331,443.5c11.05,0,20,8.95,20,20s-8.95,20-20,20c-11.051,0-20-8.95-20-20S319.949,443.5,331,443.5    z" style="fill:#9BC9FF;"/><circle cx="393.5" cy="56" r="27.5" style="fill:#9BC9FF;"/><rect height="50.007" style="fill:#9BC9FF;" transform="matrix(0.7071 -0.7071 0.7071 0.7071 -15.8386 338.7627)" width="50.006" x="375.996" y="163.497"/><circle cx="453.5" cy="96" r="7.5" style="fill:#1E81CE;"/><circle cx="453.5" cy="416" r="7.5" style="fill:#1E81CE;"/><circle cx="388.5" cy="451" r="7.5" style="fill:#1E81CE;"/><circle cx="323.5" cy="31" r="7.5" style="fill:#1E81CE;"/><circle cx="108.5" cy="31" r="7.5" style="fill:#1E81CE;"/><circle cx="103.5" cy="456" r="7.5" style="fill:#1E81CE;"/><path d="M183.28,328.26h-36.84c-2.174,0-4.098-1.404-4.762-3.475l-44.71-139.519    c-0.487-1.521-0.219-3.183,0.723-4.473s2.442-2.053,4.039-2.053h34.57c2.233,0,4.196,1.481,4.809,3.629    c4.177,14.655,7.697,26.826,10.802,37.564c6.502,22.484,10.855,37.538,14.209,51.215c4.157-16.605,8.875-32.228,14.764-51.729    c3.239-10.725,6.91-22.881,11.056-37.081c0.623-2.133,2.578-3.599,4.8-3.599h33.53c1.61,0,3.122,0.775,4.061,2.083    c0.939,1.307,1.192,2.987,0.678,4.513l-46.99,139.52C187.333,326.89,185.426,328.26,183.28,328.26z M150.088,318.26h29.6    l43.622-129.52h-22.824c-3.73,12.711-7.061,23.741-10.029,33.57c-8.144,26.966-14.027,46.45-19.253,71.337    c-0.486,2.315-2.528,3.973-4.893,3.973h-0.62c-2.4,0-4.462-1.706-4.912-4.064c-3.886-20.396-8.761-37.256-18.475-70.844    c-2.848-9.848-6.044-20.9-9.777-33.972h-23.944L150.088,318.26z" style="fill:#1E81CE;"/><path d="M286,448.5c-0.206,0-0.413-0.013-0.62-0.039l-240-30c-2.502-0.313-4.38-2.439-4.38-4.961v-320    c0-2.521,1.878-4.648,4.38-4.961l240-30c1.423-0.179,2.854,0.264,3.929,1.213C290.385,60.701,291,62.066,291,63.5v55    c0,2.761-2.238,5-5,5s-5-2.239-5-5V69.164L51,97.914v311.172l230,28.75V388.5c0-2.762,2.238-5,5-5s5,2.238,5,5v55    c0,1.435-0.615,2.799-1.691,3.748C288.391,448.06,287.211,448.5,286,448.5z" style="fill:#1E81CE;"/><path d="M393.5,88.5C375.58,88.5,361,73.92,361,56s14.58-32.5,32.5-32.5S426,38.08,426,56    S411.42,88.5,393.5,88.5z M393.5,33.5C381.094,33.5,371,43.593,371,56s10.094,22.5,22.5,22.5S416,68.407,416,56    S405.906,33.5,393.5,33.5z" style="fill:#1E81CE;"/><path d="M331,488.5c-13.785,0-25-11.215-25-25s11.215-25,25-25s25,11.215,25,25S344.785,488.5,331,488.5z     M331,448.5c-8.271,0-15,6.729-15,15s6.729,15,15,15s15-6.729,15-15S339.271,448.5,331,448.5z" style="fill:#1E81CE;"/><path d="M466,393.5H286c-2.762,0-5-2.238-5-5v-25c0-2.762,2.238-5,5-5s5,2.238,5,5v20h170v-260H291v160    c0,2.762-2.238,5-5,5s-5-2.238-5-5v-165c0-2.761,2.238-5,5-5h180c2.762,0,5,2.239,5,5v270C471,391.262,468.762,393.5,466,393.5z" style="fill:#1E81CE;"/><path d="M366,368.5h-80c-2.762,0-5-2.238-5-5v-80c0-2.762,2.238-5,5-5h80c2.762,0,5,2.238,5,5v80    C371,366.262,368.762,368.5,366,368.5z M291,358.5h70v-70h-70V358.5z" style="fill:#1E81CE;"/><path d="M401,228.86c-1.279,0-2.559-0.488-3.535-1.464l-35.361-35.36c-0.938-0.938-1.464-2.209-1.464-3.536    s0.526-2.598,1.464-3.536l35.361-35.36c1.953-1.952,5.119-1.951,7.07,0l35.36,35.36c1.952,1.953,1.952,5.119,0,7.071l-35.36,35.36    C403.559,228.372,402.279,228.86,401,228.86z M372.711,188.5L401,216.789l28.289-28.289L401,160.211L372.711,188.5z" style="fill:#1E81CE;"/><path d="M365.64,193.5H286c-2.762,0-5-2.239-5-5s2.238-5,5-5h79.64c2.761,0,5,2.239,5,5    S368.4,193.5,365.64,193.5z" style="fill:#1E81CE;"/><path d="M401,333.5h-35c-2.762,0-5-2.238-5-5s2.238-5,5-5h30v-99.64c0-2.761,2.238-5,5-5s5,2.239,5,5V328.5    C406,331.262,403.762,333.5,401,333.5z" style="fill:#1E81CE;"/></g></g><g id="Layer_1"/></svg>